<?xml version="1.0" standalone="no"?>
<!DOCTYPE svg PUBLIC "-//W3C//DTD SVG 20010904//EN"
 "http://www.w3.org/TR/2001/REC-SVG-20010904/DTD/svg10.dtd">
<svg version="1.0" xmlns="http://www.w3.org/2000/svg"
 width="250.000000pt" height="250.000000pt" viewBox="0 0 250.000000 250.000000"
 preserveAspectRatio="xMidYMid meet">
<metadata>
Created by potrace 1.14, written by Peter Selinger 2001-2017
</metadata>
<g transform="translate(0.000000,250.000000) scale(0.100000,-0.100000)"
fill="#000000" stroke="none">
<path d="M1340 1746 c0 -2 8 -10 18 -17 15 -13 16 -12 3 4 -13 16 -21 21 -21
13z"/>
<path d="M1175 1721 c-3 -5 -2 -12 3 -15 5 -3 9 1 9 9 0 17 -3 19 -12 6z"/>
<path d="M1299 1728 c-12 -40 2 -71 27 -61 8 3 14 0 14 -6 0 -6 -4 -11 -10
-11 -5 0 -10 -4 -10 -9 0 -5 12 -8 28 -6 15 2 21 2 15 -1 -9 -4 -10 -11 -3
-23 6 -13 5 -18 -5 -18 -7 0 -11 6 -8 13 3 9 -3 12 -20 8 -14 -2 -29 0 -32 6
-4 6 -12 7 -18 3 -7 -4 -5 2 3 12 14 17 13 18 -3 12 -10 -4 -20 -7 -23 -7 -2
0 -1 -7 2 -15 4 -8 1 -15 -6 -15 -6 0 -8 5 -5 10 7 11 -23 9 -41 -3 -7 -4 -14
0 -18 8 -3 9 3 19 16 26 11 6 18 7 14 1 -3 -5 5 -9 17 -8 12 1 21 7 20 14 -2
7 0 12 5 12 14 0 37 -19 37 -31 0 -7 6 -14 13 -17 11 -3 12 0 3 15 -11 22 -61
58 -61 45 0 -12 -32 -12 -47 0 -7 6 -16 4 -25 -5 -11 -13 -17 -12 -43 5 -26
17 -25 16 5 -11 22 -19 29 -31 20 -31 -9 0 -11 -3 -5 -8 23 -17 36 -40 25 -47
-6 -4 -9 -1 -8 6 2 6 -3 14 -9 16 -7 3 -13 0 -13 -6 0 -6 -5 -11 -11 -11 -8 0
-8 4 0 14 22 26 1 60 -31 50 -13 -4 -18 0 -18 13 0 15 -2 16 -10 3 -5 -8 -19
-15 -32 -15 -13 0 -27 -9 -34 -22 -6 -13 -14 -20 -17 -16 -4 3 0 18 9 32 l15
26 -20 -23 c-17 -19 -19 -28 -10 -44 8 -15 13 -17 19 -8 4 6 10 11 14 11 24
-3 28 0 16 14 -7 9 -10 19 -6 22 11 11 25 -18 22 -46 -3 -27 -20 -39 -31 -21
-5 8 -11 7 -23 -2 -13 -11 -14 -11 -8 1 6 9 5 12 -5 9 -8 -3 -13 -14 -12 -24
1 -10 0 -13 -3 -6 -3 6 -11 12 -16 12 -6 0 -8 -3 -5 -7 4 -3 -3 -13 -14 -21
-18 -12 -23 -13 -30 -1 -5 8 -9 11 -10 7 -1 -5 -3 -12 -4 -18 -1 -5 -3 -15 -4
-21 0 -6 -8 -9 -16 -5 -18 7 -19 -5 -2 -24 10 -12 9 -12 -5 -1 -21 15 -23 9
-7 -20 9 -19 9 -19 -10 -10 -13 7 -18 17 -14 28 4 10 2 14 -5 9 -6 -3 -14 -1
-18 5 -4 8 -3 9 4 5 7 -4 12 -1 12 6 0 10 3 9 11 -2 9 -13 10 -13 6 2 -5 12
-1 16 14 13 18 -4 19 -2 7 12 -11 14 -11 16 1 8 10 -6 12 -4 6 5 -6 9 -4 11 5
5 8 -5 11 -4 6 3 -7 11 12 11 31 -1 15 -9 25 6 17 27 -3 9 -1 16 6 16 6 0 8
-5 4 -11 -4 -8 -1 -8 14 0 24 13 19 41 -6 41 -13 0 -12 -3 4 -14 18 -14 17
-15 -10 -12 -19 2 -32 11 -37 25 -5 11 -11 21 -13 21 -7 0 4 -30 22 -57 10
-16 11 -23 3 -23 -6 0 -14 7 -17 15 -6 15 -35 20 -47 8 -4 -3 -1 -13 6 -21 10
-13 9 -15 -6 -9 -10 4 -23 7 -28 7 -4 0 -6 8 -3 18 5 14 4 14 -4 2 -13 -17 -6
-30 14 -30 23 0 16 -17 -15 -39 -21 -16 -31 -18 -34 -9 -3 10 -8 10 -18 -1 -8
-8 -9 -11 -2 -7 6 3 14 2 18 -4 3 -5 2 -10 -3 -10 -5 0 -17 -15 -27 -34 -12
-23 -24 -32 -34 -29 -14 4 -14 3 -1 -5 8 -6 17 -9 21 -7 5 4 29 -37 29 -50 0
-10 -29 -4 -36 7 -5 7 -2 9 9 5 11 -4 14 -2 10 9 -3 8 -8 12 -11 9 -3 -3 -16
2 -29 10 -13 9 -23 11 -23 6 0 -5 5 -11 12 -13 8 -3 8 -10 -4 -26 -8 -12 -19
-19 -24 -14 -4 4 -2 -1 5 -11 15 -19 15 -19 -14 -36 -19 -12 -19 -12 2 -6 12
3 24 1 27 -4 4 -6 13 -8 22 -4 12 5 12 7 -3 19 -17 13 -17 14 0 8 9 -3 17 -1
17 5 0 6 -3 10 -7 10 -20 -3 -34 2 -28 11 4 7 13 6 27 -1 16 -9 19 -8 13 3 -6
10 -5 10 5 1 8 -8 19 -9 30 -3 12 6 17 5 17 -4 0 -8 -10 -12 -24 -10 -19 2
-23 -1 -18 -16 6 -19 -20 -34 -60 -35 -11 0 -19 -6 -17 -12 1 -7 -2 -13 -8
-13 -5 0 -10 -5 -10 -11 0 -8 5 -7 16 1 13 11 16 10 21 -8 8 -31 20 -27 19 5
0 16 4 28 9 28 6 1 20 6 33 13 12 7 22 9 22 4 0 -6 -10 -12 -22 -15 -19 -5
-20 -8 -7 -24 7 -10 9 -15 5 -11 -11 9 -37 -23 -29 -35 3 -5 11 0 19 10 7 10
14 13 14 6 0 -6 -5 -15 -10 -18 -14 -8 -3 -24 24 -35 21 -9 21 -9 -2 -9 -13
-1 -20 -5 -17 -11 4 -6 10 -8 15 -5 4 3 7 -6 5 -20 -1 -15 4 -29 14 -35 11 -6
12 -9 3 -10 -7 0 -10 -5 -7 -10 4 -6 12 -7 18 -3 18 11 37 12 37 2 0 -8 -14
-13 -32 -11 -3 1 -8 -5 -11 -12 -4 -9 0 -13 11 -11 9 2 17 4 17 5 0 1 8 3 18
5 9 2 15 0 12 -5 -8 -13 6 -40 18 -33 5 3 7 1 4 -4 -4 -6 1 -17 10 -24 15 -12
16 -12 10 4 -3 9 -2 17 3 17 6 0 10 -7 10 -15 0 -9 6 -12 15 -9 10 4 12 10 7
18 -12 14 -11 47 0 40 5 -3 5 -10 2 -16 -4 -6 0 -16 9 -23 15 -11 14 -13 -8
-23 -14 -6 -25 -16 -25 -22 0 -13 22 -9 35 7 5 7 17 13 25 15 8 2 20 9 26 17
9 11 12 12 19 1 5 -8 4 -11 -2 -7 -6 4 -14 0 -17 -8 -3 -8 -9 -15 -13 -14 -18
3 -33 -1 -33 -9 0 -13 36 -8 57 9 16 13 17 13 4 -3 -8 -11 -9 -18 -3 -18 6 0
14 5 17 10 3 6 16 10 28 9 20 -1 20 -2 -3 -9 -27 -9 -26 -11 8 -15 12 -1 22 2
22 7 0 5 5 6 10 3 6 -3 10 2 10 12 0 15 2 16 10 3 7 -11 3 -18 -18 -30 -15 -8
-34 -13 -42 -11 -8 1 -5 -5 8 -14 12 -9 22 -21 22 -26 0 -5 -11 -2 -25 8 -13
10 -23 23 -20 29 4 13 -53 12 -75 -1 -9 -6 -11 -4 -5 6 5 8 5 11 0 7 -4 -4
-15 -2 -23 5 -11 8 -14 9 -9 0 5 -8 0 -11 -13 -10 -15 1 -19 6 -14 22 4 16 3
17 -5 5 -8 -11 -11 -11 -12 -2 -1 6 -2 17 -3 23 0 6 -12 19 -26 27 l-25 16 18
-21 c11 -12 16 -27 11 -34 -4 -8 -3 -10 4 -5 7 4 12 3 12 -3 0 -20 -19 -21
-29 -2 -14 26 -14 34 1 25 6 -4 3 4 -7 17 -14 18 -28 25 -56 25 -21 0 -36 -3
-33 -8 3 -4 13 -8 22 -8 18 -1 52 -23 52 -34 0 -4 -4 -4 -10 -1 -5 3 -10 3
-10 -2 0 -4 13 -15 29 -24 21 -12 32 -14 40 -6 8 8 11 8 11 0 0 -6 -10 -18
-22 -28 -22 -16 -22 -16 4 -1 15 9 29 12 33 7 3 -5 -1 -11 -7 -14 -7 -2 -9 -8
-5 -13 5 -5 13 -1 18 9 6 9 15 17 21 17 7 0 6 -6 -2 -15 -11 -13 -10 -14 4 -9
9 3 16 11 16 16 0 7 5 6 13 -1 8 -6 16 -8 19 -5 3 2 8 -3 12 -12 5 -13 1 -15
-21 -10 -27 5 -27 5 -5 -6 19 -9 26 -8 47 12 24 23 37 16 13 -8 -14 -14 -20
-44 -7 -36 5 3 7 9 4 14 -6 10 15 26 34 26 8 -1 15 -9 17 -18 2 -17 -8 -23
-31 -18 -5 1 -5 -4 2 -11 10 -10 15 -9 27 1 9 7 14 15 12 19 -7 11 18 36 37
37 20 2 23 -12 5 -19 -10 -4 -10 -6 -1 -6 18 -1 26 18 14 33 -6 7 -7 16 -3 20
4 4 0 6 -8 4 -8 -2 -18 -7 -21 -12 -4 -4 -10 -3 -13 3 -4 6 -2 12 3 12 41 5
55 17 40 35 -10 12 -9 17 1 27 10 9 11 9 6 -1 -4 -6 0 -19 8 -28 16 -16 12
-39 -5 -29 -5 4 -4 -5 3 -20 10 -22 13 -23 20 -10 5 8 6 20 3 25 -3 6 -1 10 6
10 8 0 8 4 1 13 -7 8 -7 18 -2 27 9 13 10 13 11 0 1 -8 1 -19 0 -23 -1 -5 4
-7 11 -4 7 2 12 10 10 16 -1 7 2 10 7 7 5 -3 11 1 15 9 3 9 12 12 22 8 11 -4
15 -2 11 4 -3 5 5 19 18 31 24 21 24 21 30 1 4 -11 10 -18 13 -14 11 11 8 29
-6 40 -11 9 -9 14 10 30 l23 20 -20 -24 c-18 -22 -18 -24 -2 -18 12 5 16 3 11
-4 -4 -7 -1 -10 7 -7 8 3 13 14 12 24 -1 10 0 13 3 7 3 -7 10 -13 15 -13 11 0
7 22 -6 33 -6 5 -3 7 7 3 12 -4 23 3 33 22 15 26 16 26 9 2 -6 -22 -5 -23 9
-11 13 10 14 18 6 35 -10 21 -10 21 6 1 9 -11 21 -19 26 -17 6 1 2 -8 -8 -22
-10 -13 -21 -20 -24 -15 -3 5 -11 -2 -17 -16 -7 -16 -17 -23 -24 -19 -7 4 -8
3 -4 -4 4 -7 2 -10 -6 -9 -7 2 -10 2 -5 0 4 -3 5 -8 2 -13 -3 -4 3 -14 12 -21
14 -12 16 -12 9 0 -7 10 -3 12 15 7 13 -3 18 -3 11 0 -6 3 -10 10 -7 15 4 5
-2 6 -12 3 -17 -5 -17 -5 0 9 9 8 17 20 17 28 0 11 2 11 10 -1 5 -8 10 -10 10
-4 0 6 10 16 23 22 12 6 16 11 9 11 -7 1 -10 6 -7 11 4 6 11 7 17 4 6 -4 6 2
-1 15 -7 11 -9 21 -5 21 3 0 1 6 -5 14 -20 24 5 27 25 4 11 -12 13 -18 5 -13
-10 6 -12 4 -6 -5 6 -9 4 -11 -6 -5 -8 5 -11 4 -6 0 10 -11 68 -14 61 -3 -3 4
1 8 8 8 8 0 6 5 -5 11 -9 5 -21 8 -25 5 -4 -3 -14 5 -21 17 -11 18 -11 20 0
10 21 -21 34 -15 14 7 -10 11 -13 20 -7 20 7 0 12 -4 12 -9 0 -5 14 -20 32
-32 17 -13 28 -16 23 -8 -13 20 -15 39 -4 39 5 0 9 -8 9 -17 1 -12 7 -6 18 15
10 18 22 29 27 25 4 -4 5 -2 0 6 -6 10 -3 12 13 7 13 -4 22 -1 26 9 3 8 16 20
28 25 18 7 19 9 5 9 -10 1 -15 6 -12 11 4 6 11 8 16 5 5 -4 17 1 26 10 15 15
17 15 25 1 5 -9 13 -16 18 -16 6 0 3 8 -5 18 -8 9 -14 19 -13 22 1 3 -4 16
-11 29 -12 21 -10 26 13 48 25 23 37 51 16 38 -5 -3 -10 -1 -10 5 0 7 7 9 15
6 8 -3 22 -9 30 -12 11 -4 13 -2 9 10 -3 8 -11 14 -17 13 -12 -2 -13 7 -2 57
5 25 4 28 -9 17 -8 -7 -12 -20 -9 -28 5 -13 2 -12 -14 3 -11 10 -18 22 -16 27
2 4 -3 7 -12 7 -9 0 -14 -4 -11 -8 3 -5 -1 -9 -9 -9 -23 0 -18 13 9 25 21 10
26 8 31 -9 4 -10 11 -17 16 -13 6 3 5 12 -3 22 -11 13 -11 14 2 7 8 -5 21 -10
28 -11 23 -4 27 -14 12 -25 -12 -9 -12 -10 3 -5 11 3 16 2 12 -4 -3 -6 -1 -10
6 -10 8 0 9 -3 0 -13 -6 -8 -7 -18 -3 -22 4 -5 0 -4 -8 0 -10 6 -10 2 3 -12
16 -19 16 -21 2 -27 -9 -3 -21 -4 -26 -1 -5 4 -6 -1 -3 -10 5 -11 10 -13 17
-6 8 8 17 6 31 -7 20 -16 20 -16 7 1 -11 14 -11 20 0 33 8 9 14 22 15 28 0 6
2 17 2 24 1 7 6 11 11 7 5 -3 13 0 17 6 4 8 3 9 -4 5 -7 -4 -12 -2 -12 3 0 6
5 11 10 11 15 0 12 17 -2 17 -7 0 -19 2 -27 4 -7 2 -16 -2 -18 -10 -4 -9 0
-11 16 -6 15 5 19 3 16 -8 -7 -18 -33 -18 -40 0 -6 18 13 56 24 48 5 -3 12 2
15 11 5 12 -2 11 -30 -6 -19 -12 -38 -20 -40 -17 -3 3 3 12 15 19 12 7 21 17
21 22 0 4 -7 3 -15 -4 -17 -14 -21 -1 -5 18 6 6 7 10 4 7 -4 -3 -13 3 -21 13
-13 16 -13 15 -5 -3 10 -22 5 -48 -8 -40 -5 3 -7 13 -4 23 4 10 2 13 -3 7 -13
-15 -41 -17 -46 -3 -2 7 -3 5 -2 -4 2 -10 -1 -18 -6 -18 -9 0 -13 14 -10 39 2
7 -3 10 -9 6 -6 -4 -9 -13 -6 -20 7 -19 -24 -12 -40 10 -11 15 -14 15 -19 4
-3 -8 -16 -15 -28 -16 l-22 -2 23 19 c27 23 27 25 0 27 -16 2 -19 0 -9 -6 8
-5 9 -11 3 -15 -14 -8 -35 20 -26 36 5 10 4 10 -5 2 -13 -12 -5 -44 11 -44 5
0 7 -4 3 -10 -3 -5 -12 -7 -20 -4 -8 4 -12 11 -8 18 4 7 1 7 -9 -1 -20 -17
-31 -5 -13 14 8 8 15 20 15 26 0 7 -5 4 -11 -6 -6 -9 -15 -14 -21 -11 -6 4 -8
3 -5 -3 4 -6 -1 -17 -10 -24 -14 -12 -15 -11 -9 9 8 23 7 23 -13 5 -23 -19
-28 -28 -10 -17 8 4 8 0 0 -15 -9 -16 -9 -21 0 -21 7 0 9 -3 6 -6 -4 -4 -14
-1 -23 7 -13 11 -18 11 -21 2 -3 -7 -10 -13 -16 -13 -8 0 -7 4 1 12 19 19 14
33 -6 15 -23 -21 -43 -8 -37 26 3 16 1 27 -5 27 -6 0 -8 -4 -5 -10 3 -5 2 -10
-4 -10 -5 0 -12 9 -16 19 -4 13 -13 18 -26 16 -16 -3 -18 1 -15 21 3 13 3 24
0 24 -2 0 -4 -1 -5 -2z m-100 -69 c-22 -14 -33 -10 -19 6 7 8 17 12 22 9 6 -4
5 -10 -3 -15z m46 1 c3 -5 1 -10 -4 -10 -6 0 -11 5 -11 10 0 6 2 10 4 10 3 0
8 -4 11 -10z m-143 -27 c18 -16 18 -16 12 0 -3 9 -2 17 3 17 5 0 9 -8 10 -19
2 -19 -39 -47 -54 -38 -8 5 -10 37 -4 55 2 6 16 0 33 -15z m438 -12 c0 9 3 10
8 4 8 -12 71 -14 88 -3 7 4 17 1 24 -7 7 -8 16 -12 21 -9 5 3 9 1 9 -4 0 -4
14 -8 30 -8 17 0 30 4 30 9 0 6 8 3 18 -6 10 -10 22 -15 25 -12 4 3 4 2 1 -2
-9 -12 -54 -10 -54 2 0 6 -3 7 -8 0 -4 -5 -11 -11 -17 -12 -5 -1 -18 -5 -27
-8 -11 -4 -18 -3 -18 5 0 6 -5 8 -10 5 -6 -4 -8 -10 -6 -14 3 -3 -4 -7 -14 -7
-10 0 -17 3 -15 6 5 9 -22 29 -30 22 -9 -9 -55 -10 -49 -1 2 4 -3 12 -11 19
-12 10 -18 10 -32 -1 -11 -10 -14 -10 -9 -1 4 6 2 12 -3 12 -6 0 -11 5 -11 11
0 5 4 8 9 4 5 -3 13 0 17 6 5 9 11 7 21 -6 9 -14 13 -15 13 -4z m-250 -21 c0
-5 -4 -10 -10 -10 -5 0 -10 5 -10 10 0 6 5 10 10 10 6 0 10 -4 10 -10z m-160
-45 c0 -5 -5 -3 -10 5 -5 8 -10 20 -10 25 0 6 5 3 10 -5 5 -8 10 -19 10 -25z
m110 29 c0 -8 -19 -13 -24 -6 -3 5 1 9 9 9 8 0 15 -2 15 -3z m165 -4 c3 -5 1
-10 -4 -10 -6 0 -11 5 -11 10 0 6 2 10 4 10 3 0 8 -4 11 -10z m125 6 c0 -2 -7
-7 -16 -10 -8 -3 -12 -2 -9 4 6 10 25 14 25 6z m-636 -15 c4 -5 -1 -8 -9 -7
-21 3 -31 16 -12 16 9 0 18 -4 21 -9z m591 -1 c-3 -5 -12 -10 -18 -10 -7 0 -6
4 3 10 19 12 23 12 15 0z m125 -31 c0 -5 -4 -9 -8 -9 -5 0 -9 7 -9 15 0 8 4
12 9 9 4 -3 8 -9 8 -15z m-640 -9 c0 -5 -7 -10 -16 -10 -8 0 -13 -4 -9 -9 3
-5 1 -12 -4 -15 -5 -4 -8 1 -7 10 1 8 9 20 17 25 18 11 19 11 19 -1z m694 -16
c3 -8 2 -12 -4 -9 -6 3 -10 10 -10 16 0 14 7 11 14 -7z m-747 -16 c-3 -8 -6
-5 -6 6 -1 11 2 17 5 13 3 -3 4 -12 1 -19z m813 12 c0 -5 -2 -10 -4 -10 -3 0
-8 5 -11 10 -3 6 -1 10 4 10 6 0 11 -4 11 -10z m24 -32 c-9 -14 -23 2 -17 18
4 12 8 13 14 3 4 -7 5 -17 3 -21z m88 15 c-10 -4 -10 -8 -1 -19 6 -8 9 -14 5
-14 -3 0 -9 0 -13 0 -5 0 -8 6 -9 13 0 16 17 39 25 31 3 -4 0 -9 -7 -11z
m-1034 -27 c-2 -3 6 -12 17 -21 11 -8 16 -15 10 -14 -23 3 -29 -2 -15 -12 13
-8 12 -9 -4 -7 -10 2 -21 -3 -24 -11 -2 -8 0 -11 5 -8 5 3 10 0 10 -8 0 -8 -4
-12 -9 -9 -4 3 -8 -1 -8 -8 0 -10 -2 -10 -9 1 -5 8 -7 21 -3 29 3 10 1 13 -6
8 -6 -3 -14 -1 -18 5 -3 6 0 15 7 20 8 5 10 9 5 9 -5 0 1 12 15 26 13 14 25
21 27 15 2 -6 2 -13 0 -15z m866 16 c3 -5 -1 -9 -9 -9 -8 0 -12 4 -9 9 3 4 7
8 9 8 2 0 6 -4 9 -8z m65 -63 c-15 -9 -32 -2 -24 11 3 5 13 6 21 3 12 -4 13
-8 3 -14z m-1012 -54 c0 -8 -4 -15 -9 -15 -10 0 -11 14 -1 23 9 10 10 9 10 -8z
m976 -2 c-4 -10 -2 -14 5 -9 6 3 14 1 18 -5 4 -8 3 -9 -4 -5 -7 4 -12 2 -12
-3 0 -6 6 -11 13 -11 6 0 3 -6 -8 -12 -11 -7 -20 -10 -21 -7 0 2 -8 -2 -17
-10 -9 -7 -15 -17 -12 -21 2 -4 -3 -15 -13 -23 -17 -15 -19 -14 -29 13 -9 23
-8 28 4 23 8 -3 13 0 11 8 -2 8 3 13 10 11 8 -1 11 6 8 22 -3 19 -1 23 11 19
12 -5 14 -3 8 7 -5 8 -4 11 3 6 6 -3 13 -2 17 4 10 16 15 12 8 -7z m-73 -40
c0 -1 -8 -7 -18 -12 -13 -7 -19 -6 -19 2 0 7 9 13 19 13 10 0 18 -1 18 -3z
m-60 -37 c0 -3 -4 -8 -10 -11 -5 -3 -10 -1 -10 4 0 6 5 11 10 11 6 0 10 -2 10
-4z m29 -55 c-11 -14 -28 -26 -37 -26 -9 0 -16 -6 -14 -13 1 -8 -2 -11 -8 -7
-6 3 -8 11 -5 16 4 5 0 9 -7 9 -8 0 -6 5 5 11 13 8 22 7 33 -1 17 -15 19 1 2
18 -9 9 -9 12 0 12 7 0 12 -5 12 -11 0 -5 5 -7 12 -3 7 5 5 12 -8 22 -18 14
-18 14 0 8 14 -5 17 -2 12 11 -5 16 -4 16 9 -1 13 -17 12 -22 -6 -45z m-905
23 c5 -14 4 -15 -9 -4 -17 14 -19 20 -6 20 5 0 12 -7 15 -16z m836 -14 c0 -5
-5 -10 -11 -10 -5 0 -7 5 -4 10 3 6 8 10 11 10 2 0 4 -4 4 -10z m-729 -47 c13
-16 12 -17 -3 -4 -10 7 -18 15 -18 17 0 8 8 3 21 -13z m669 7 c0 -5 -5 -10
-11 -10 -5 0 -7 5 -4 10 3 6 8 10 11 10 2 0 4 -4 4 -10z m-695 -20 c3 -6 -1
-7 -9 -4 -18 7 -21 14 -7 14 6 0 13 -4 16 -10z m673 -45 c-3 -3 -9 2 -12 12
-6 14 -5 15 5 6 7 -7 10 -15 7 -18z m82 11 c0 -3 -4 -8 -10 -11 -5 -3 -10 -1
-10 4 0 6 5 11 10 11 6 0 10 -2 10 -4z m-720 -30 c-7 -7 -13 -7 -20 0 -6 6 -3
10 10 10 13 0 16 -4 10 -10z m457 -61 c0 -8 -4 -12 -9 -9 -5 3 -6 10 -3 15 9
13 12 11 12 -6z m-447 -81 c0 -2 -9 0 -20 6 -11 6 -20 13 -20 16 0 2 9 0 20
-6 11 -6 20 -13 20 -16z m382 12 c7 4 8 2 4 -4 -11 -18 -26 -14 -25 6 0 10 3
12 6 4 2 -6 10 -9 15 -6z m-119 -21 c-3 -9 -8 -14 -10 -11 -3 3 -2 9 2 15 9
16 15 13 8 -4z m-73 -64 c0 -5 -7 -14 -15 -21 -8 -7 -15 -10 -15 -7 0 3 -2 12
-5 19 -4 9 2 14 15 15 11 1 20 -2 20 -6z"/>
<path d="M1078 1633 c10 -4 10 -8 1 -19 -9 -11 -8 -14 3 -14 8 0 18 3 21 7 9
8 -12 33 -27 32 -6 0 -6 -3 2 -6z"/>
<path d="M1554 1595 c11 -8 23 -15 27 -15 13 0 20 18 9 25 -5 3 -10 0 -10 -7
0 -8 -3 -9 -8 -3 -4 6 -14 11 -22 13 -10 1 -9 -2 4 -13z"/>
<path d="M1610 1600 c0 -4 7 -13 15 -20 12 -10 19 -10 27 -2 8 8 15 9 25 1 8
-7 13 -8 13 -1 0 5 -8 13 -17 17 -27 11 -63 14 -63 5z"/>
<path d="M780 1455 c-7 -8 -9 -15 -5 -15 4 0 2 -6 -4 -14 -10 -11 -9 -14 4
-12 8 1 21 8 28 15 9 9 9 14 -2 20 -11 7 -11 9 0 14 8 3 9 6 3 6 -6 1 -17 -6
-24 -14z m15 -14 c3 -5 2 -12 -3 -15 -5 -3 -9 1 -9 9 0 17 3 19 12 6z"/>
<path d="M1675 1342 c-5 -4 -10 -14 -10 -22 0 -8 -6 -14 -13 -12 -8 1 -11 -2
-8 -7 4 -5 2 -12 -4 -16 -6 -4 -8 -11 -4 -16 3 -5 10 -7 15 -3 5 3 7 9 4 13
-4 8 33 48 41 44 2 -2 4 -1 4 2 0 3 0 10 0 15 0 12 -11 13 -25 2z"/>
<path d="M1375 1710 c-4 -6 -10 -8 -14 -6 -4 3 -8 -1 -8 -9 0 -8 4 -12 9 -9
12 8 39 -16 32 -28 -4 -6 0 -14 7 -19 11 -7 10 -9 -4 -9 -10 0 -15 -5 -12 -11
5 -7 13 -5 24 5 15 14 19 14 35 -2 18 -16 19 -16 12 2 -3 10 -1 25 5 32 9 11
9 14 0 14 -7 0 -9 5 -5 12 4 7 3 8 -4 4 -6 -4 -8 -14 -5 -24 6 -15 5 -15 -10
-3 -9 7 -17 10 -17 6 0 -5 -9 0 -20 10 -12 10 -18 25 -16 32 6 15 0 17 -9 3z
m61 -62 c3 -4 -1 -5 -10 -4 -8 1 -18 5 -22 8 -3 4 1 5 10 4 8 -1 18 -5 22 -8z"/>
<path d="M1150 1700 c0 -5 5 -10 11 -10 5 0 7 5 4 10 -3 6 -8 10 -11 10 -2 0
-4 -4 -4 -10z"/>
<path d="M1204 1702 c4 -3 14 -7 22 -8 9 -1 13 0 10 4 -4 3 -14 7 -22 8 -9 1
-13 0 -10 -4z"/>
<path d="M1413 1695 c0 -7 6 -11 14 -8 7 3 13 6 13 8 0 2 -6 5 -13 8 -8 3 -14
-1 -14 -8z"/>
<path d="M1673 1695 c0 -8 4 -12 9 -9 5 3 6 10 3 15 -9 13 -12 11 -12 -6z"/>
<path d="M1478 1683 c7 -3 16 -2 19 1 4 3 -2 6 -13 5 -11 0 -14 -3 -6 -6z"/>
<path d="M957 1673 c-11 -11 -8 -20 7 -20 8 0 12 6 9 14 -6 15 -7 15 -16 6z"/>
<path d="M1719 1668 c15 -21 31 -23 31 -6 0 6 -3 8 -7 5 -3 -4 -13 -1 -22 6
-14 11 -14 10 -2 -5z"/>
<path d="M1664 1659 c-3 -6 -1 -16 5 -22 9 -9 10 -7 5 7 -5 13 -4 17 4 12 7
-4 12 -2 12 3 0 14 -17 14 -26 0z"/>
<path d="M1833 1651 c0 -11 5 -18 9 -15 4 3 5 11 1 19 -7 21 -12 19 -10 -4z"/>
<path d="M849 1623 c-13 -16 -12 -17 4 -4 9 7 17 15 17 17 0 8 -8 3 -21 -13z"/>
<path d="M921 1624 c0 -11 3 -14 6 -6 3 7 2 16 -1 19 -3 4 -6 -2 -5 -13z"/>
<path d="M746 1622 c-3 -5 1 -9 9 -9 8 0 12 4 9 9 -3 4 -7 8 -9 8 -2 0 -6 -4
-9 -8z"/>
<path d="M810 1621 c0 -6 4 -12 8 -15 5 -3 9 1 9 9 0 8 -4 15 -9 15 -4 0 -8
-4 -8 -9z"/>
<path d="M1875 1620 c-3 -5 -1 -10 4 -10 6 0 11 5 11 10 0 6 -2 10 -4 10 -3 0
-8 -4 -11 -10z"/>
<path d="M1030 1590 c0 -5 5 -10 11 -10 5 0 7 5 4 10 -3 6 -8 10 -11 10 -2 0
-4 -4 -4 -10z"/>
<path d="M756 1578 c3 -5 10 -6 15 -3 13 9 11 12 -6 12 -8 0 -12 -4 -9 -9z"/>
<path d="M1875 1579 c-4 -6 -5 -12 -2 -15 2 -3 7 2 10 11 7 17 1 20 -8 4z"/>
<path d="M1950 1580 c0 -5 5 -10 11 -10 5 0 7 5 4 10 -3 6 -8 10 -11 10 -2 0
-4 -4 -4 -10z"/>
<path d="M780 1556 c0 -2 7 -7 16 -10 8 -3 12 -2 9 4 -6 10 -25 14 -25 6z"/>
<path d="M800 1530 c-23 -7 -23 -8 -3 -9 12 -1 25 4 28 9 3 6 5 10 3 9 -2 -1
-14 -5 -28 -9z"/>
<path d="M735 1508 c4 -13 11 -27 16 -33 5 -5 4 5 -2 23 -12 36 -24 44 -14 10z"/>
<path d="M1913 1507 c0 -8 6 -14 14 -14 9 0 10 4 2 14 -6 7 -12 13 -14 13 -1
0 -2 -6 -2 -13z"/>
<path d="M699 1493 c-12 -16 -12 -17 2 -6 9 7 20 9 24 5 5 -4 5 -1 1 6 -9 16
-11 15 -27 -5z"/>
<path d="M1786 1494 c-9 -24 -7 -27 9 -10 17 17 19 26 6 26 -5 0 -12 -7 -15
-16z"/>
<path d="M655 1460 c-3 -5 -1 -10 4 -10 6 0 11 5 11 10 0 6 -2 10 -4 10 -3 0
-8 -4 -11 -10z"/>
<path d="M705 1460 c3 -5 8 -10 11 -10 2 0 4 5 4 10 0 6 -5 10 -11 10 -5 0 -7
-4 -4 -10z"/>
<path d="M730 1458 c0 -9 -6 -19 -12 -21 -10 -4 -10 -6 0 -6 14 -1 28 26 18
36 -3 4 -6 -1 -6 -9z"/>
<path d="M1854 1439 c-3 -6 -1 -16 5 -22 9 -9 10 -7 5 8 l-7 20 24 -20 24 -20
-19 23 c-22 25 -23 26 -32 11z"/>
<path d="M678 1423 c7 -3 16 -2 19 1 4 3 -2 6 -13 5 -11 0 -14 -3 -6 -6z"/>
<path d="M1752 1402 c-21 -22 -22 -25 -8 -41 9 -10 13 -21 9 -24 -3 -4 -1 -7
5 -7 15 0 15 13 0 28 -16 16 4 16 21 0 11 -10 13 -10 7 0 -9 15 6 16 21 1 8
-8 13 -7 18 2 5 7 4 10 -2 6 -6 -4 -16 -1 -22 7 -9 10 -8 15 3 19 8 3 17 2 20
-4 2 -5 3 -4 2 3 -1 7 -10 13 -20 13 -9 0 -20 5 -24 10 -4 6 -16 1 -30 -13z
m31 -19 c-5 -11 -8 -13 -11 -5 -3 10 -7 10 -20 0 -12 -9 -12 -6 2 9 21 25 39
22 29 -4z"/>
<path d="M641 1396 c-9 -11 -9 -16 1 -22 7 -4 10 -4 6 1 -4 4 -3 14 3 22 6 7
9 13 6 13 -2 0 -10 -6 -16 -14z"/>
<path d="M660 1368 c-10 -21 -10 -21 3 -6 8 10 18 14 22 10 5 -4 5 -1 1 6 -10
17 -14 15 -26 -10z"/>
<path d="M655 1330 c6 -10 4 -12 -8 -7 -10 3 -17 2 -17 -3 0 -13 27 -13 35 -1
3 5 0 13 -6 17 -8 5 -9 3 -4 -6z"/>
<path d="M600 1306 c0 -2 8 -10 18 -17 15 -13 16 -12 3 4 -13 16 -21 21 -21
13z"/>
<path d="M1715 1281 c-3 -5 -2 -12 3 -15 5 -3 9 1 9 9 0 17 -3 19 -12 6z"/>
<path d="M635 1270 c-3 -5 -1 -10 4 -10 6 0 11 5 11 10 0 6 -2 10 -4 10 -3 0
-8 -4 -11 -10z"/>
<path d="M630 1220 c0 -5 5 -10 11 -10 5 0 7 5 4 10 -3 6 -8 10 -11 10 -2 0
-4 -4 -4 -10z"/>
<path d="M661 1208 c-12 -19 -11 -23 4 -34 9 -7 29 -11 43 -9 15 2 21 2 15 -1
-7 -3 -13 -14 -13 -24 0 -10 -5 -22 -10 -25 -6 -4 -7 -11 -4 -17 4 -6 -1 -8
-14 -4 -11 4 -23 2 -27 -3 -4 -7 1 -8 11 -4 13 5 15 3 9 -8 -7 -10 -2 -9 17 3
15 10 30 14 33 9 3 -5 -4 -13 -16 -16 -13 -4 -18 -12 -15 -22 4 -11 2 -13 -9
-9 -8 3 -15 1 -15 -4 0 -6 6 -10 14 -10 17 0 38 24 29 33 -3 4 -1 7 5 7 20 0
22 -18 5 -36 -17 -17 -17 -18 1 -11 10 4 25 2 32 -4 14 -11 20 0 14 26 -1 6
-4 17 -5 25 -2 8 -4 17 -5 20 -1 3 -3 11 -4 19 0 8 -8 17 -16 19 -13 4 -13 3
-2 -10 10 -13 10 -18 1 -24 -8 -5 -9 -3 -4 6 5 8 4 11 -3 6 -11 -7 -10 13 2
45 6 13 -29 58 -40 52 -12 -8 -23 -1 -18 12 9 22 1 18 -15 -7z m29 -29 c0 -4
-7 -6 -15 -3 -8 4 -15 10 -15 15 0 4 7 6 15 3 8 -4 15 -10 15 -15z m66 -117
c-2 -9 2 -21 8 -25 7 -6 6 -7 -4 -4 -8 2 -15 8 -15 13 0 5 -3 14 -7 20 -4 6
-5 14 -1 17 10 11 21 -2 19 -21z"/>
<path d="M1686 1218 c3 -5 10 -6 15 -3 13 9 11 12 -6 12 -8 0 -12 -4 -9 -9z"/>
<path d="M575 1200 c3 -5 8 -10 11 -10 2 0 4 5 4 10 0 6 -5 10 -11 10 -5 0 -7
-4 -4 -10z"/>
<path d="M1590 1170 c-6 -11 -8 -20 -6 -20 3 0 10 9 16 20 6 11 8 20 6 20 -3
0 -10 -9 -16 -20z"/>
<path d="M633 1165 c0 -8 4 -15 9 -15 4 0 8 4 8 9 0 6 -4 12 -8 15 -5 3 -9 -1
-9 -9z"/>
<path d="M575 1161 c-3 -5 -2 -12 3 -15 5 -3 9 1 9 9 0 17 -3 19 -12 6z"/>
<path d="M606 1142 c-3 -5 1 -9 9 -9 8 0 12 4 9 9 -3 4 -7 8 -9 8 -2 0 -6 -4
-9 -8z"/>
<path d="M655 1139 c-11 -16 -1 -19 13 -3 7 8 8 14 3 14 -5 0 -13 -5 -16 -11z"/>
<path d="M681 1133 c-7 -8 -11 -16 -8 -19 2 -2 10 2 17 11 17 20 9 27 -9 8z"/>
<path d="M590 1101 c0 -6 4 -13 10 -16 6 -3 7 1 4 9 -7 18 -14 21 -14 7z"/>
<path d="M1490 1100 c0 -5 5 -10 10 -10 6 0 10 5 10 10 0 6 -4 10 -10 10 -5 0
-10 -4 -10 -10z"/>
<path d="M1383 1075 c-7 -8 -9 -16 -4 -19 5 -3 12 1 15 10 8 22 4 25 -11 9z"/>
<path d="M1520 1080 c-12 -7 -10 -9 7 -7 12 0 19 5 17 9 -6 10 -6 10 -24 -2z"/>
<path d="M625 1059 c-3 -4 2 -6 10 -5 21 3 28 13 10 13 -9 0 -18 -4 -20 -8z"/>
<path d="M1455 1060 c-4 -6 1 -7 12 -3 16 6 17 5 3 -13 -14 -18 -14 -18 2 -5
10 7 15 17 12 22 -7 12 -21 11 -29 -1z"/>
<path d="M1428 1033 c7 -3 16 -2 19 1 4 3 -2 6 -13 5 -11 0 -14 -3 -6 -6z"/>
<path d="M816 1021 c-3 -5 1 -11 9 -14 9 -4 12 -1 8 9 -6 16 -10 17 -17 5z"/>
<path d="M1341 1022 c-1 -7 -6 -10 -13 -6 -6 4 -9 3 -5 -2 3 -5 -1 -17 -8 -27
-13 -18 -14 -17 -20 2 -5 17 -10 19 -26 10 -11 -5 -17 -14 -14 -18 2 -5 -2
-14 -10 -21 -11 -9 -15 -9 -15 -1 0 6 -14 -4 -30 -23 -19 -21 -28 -40 -24 -50
5 -13 9 -14 20 -5 8 6 11 16 7 22 -4 6 0 8 10 4 11 -4 14 -2 10 9 -4 10 0 12
11 8 9 -3 16 -1 16 6 0 6 4 9 9 6 10 -6 68 35 69 49 0 5 5 11 11 13 7 2 8 -3
4 -14 -5 -13 -3 -16 9 -12 9 4 22 1 29 -5 8 -7 4 -1 -7 13 -12 14 -24 32 -27
40 -4 10 -6 11 -6 2z m-57 -44 c-3 -4 0 -8 7 -8 19 0 -4 -21 -27 -25 -11 -2
-20 -4 -21 -4 -2 -1 -6 -1 -10 -2 -15 -1 -42 -32 -37 -40 3 -5 0 -9 -5 -9 -18
0 -12 15 14 40 14 13 25 20 25 15 0 -4 9 0 20 10 11 10 18 21 15 25 -2 4 2 7
10 7 8 0 12 -4 9 -9z"/>
<path d="M678 1003 c7 -3 16 -2 19 1 4 3 -2 6 -13 5 -11 0 -14 -3 -6 -6z"/>
<path d="M686 978 c3 -4 9 -8 15 -8 5 0 9 4 9 8 0 5 -7 9 -15 9 -8 0 -12 -4
-9 -9z"/>
<path d="M1416 973 c-6 -14 -5 -15 5 -6 7 7 10 15 7 18 -3 3 -9 -2 -12 -12z"/>
<path d="M750 968 c-12 -8 -12 -9 2 -5 9 3 19 1 22 -6 3 -9 5 -9 5 0 1 18 -13
23 -29 11z"/>
<path d="M1309 942 c-14 -12 -18 -21 -11 -26 6 -3 13 -2 17 4 3 5 3 10 -1 10
-4 0 1 7 12 15 10 8 16 15 13 15 -4 0 -17 -8 -30 -18z"/>
<path d="M675 940 c3 -5 8 -10 11 -10 2 0 4 5 4 10 0 6 -5 10 -11 10 -5 0 -7
-4 -4 -10z"/>
<path d="M775 921 c-3 -5 -2 -12 3 -15 5 -3 9 1 9 9 0 17 -3 19 -12 6z"/>
<path d="M801 913 c-1 -17 16 -25 25 -12 4 7 3 9 -4 5 -5 -3 -13 0 -15 6 -4 9
-6 10 -6 1z"/>
<path d="M1261 917 c2 -1 13 -9 24 -17 19 -14 19 -14 6 3 -7 9 -18 17 -24 17
-6 0 -8 -1 -6 -3z"/>
<path d="M1228 891 c-14 -13 -15 -20 -6 -29 7 -7 17 -12 23 -12 5 0 2 5 -8 11
-18 10 -18 11 0 24 10 7 16 15 13 18 -3 2 -13 -3 -22 -12z"/>
<path d="M1334 902 c4 -3 14 -7 22 -8 9 -1 13 0 10 4 -4 3 -14 7 -22 8 -9 1
-13 0 -10 -4z"/>
<path d="M1256 882 c-3 -5 1 -9 9 -9 8 0 12 4 9 9 -3 4 -7 8 -9 8 -2 0 -6 -4
-9 -8z"/>
<path d="M1157 867 c-3 -8 1 -14 8 -14 7 0 11 6 8 14 -3 7 -6 13 -8 13 -2 0
-5 -6 -8 -13z"/>
<path d="M1293 865 c0 -8 4 -12 9 -9 5 3 6 10 3 15 -9 13 -12 11 -12 -6z"/>
<path d="M846 862 c-3 -5 1 -9 9 -9 8 0 12 4 9 9 -3 4 -7 8 -9 8 -2 0 -6 -4
-9 -8z"/>
<path d="M895 850 c-3 -6 1 -7 9 -4 18 7 21 14 7 14 -6 0 -13 -4 -16 -10z"/>
<path d="M920 835 c-9 -11 -10 -19 -3 -26 8 -8 11 -6 10 7 -1 11 4 18 11 16 8
-1 11 2 7 8 -8 13 -10 13 -25 -5z"/>
<path d="M1195 840 c3 -5 8 -10 11 -10 2 0 4 5 4 10 0 6 -5 10 -11 10 -5 0 -7
-4 -4 -10z"/>
<path d="M1133 805 c0 -8 4 -12 9 -9 5 3 6 10 3 15 -9 13 -12 11 -12 -6z"/>
<path d="M1165 800 c-3 -6 1 -7 9 -4 18 7 21 14 7 14 -6 0 -13 -4 -16 -10z"/>
<path d="M1039 798 c-5 -18 -6 -38 -1 -34 7 8 12 36 6 36 -2 0 -4 -1 -5 -2z"/>
<path d="M995 711 c-3 -5 -2 -12 3 -15 5 -3 9 1 9 9 0 17 -3 19 -12 6z"/>
</g>
</svg>
